# xmcd
#
# Track frame offsets:
#	150
#	4239
#	17607
#	28967
#	45249
#	66547
#	80413
#	101674
#	114389
#	130794
#	142206
#	156749
#	168709
#	206014
#
# Disc length: 2940 seconds
#
# Revision: 1
# Processed by: cddbd v1.5.2PL0 Copyright (c) Steve Scherf et al.
# Submitted via: audiograbber 1.83.01
#
DISCID=ca0b7a0e
DTITLE=The Bluegrass Brothers - Live at the Coffee Pot
DYEAR=2011
DGENRE=Bluegrass
TTITLE0=Intro - Cumberland Gap
TTITLE1=Till The End Of The World Goes Round
TTITLE2=Flying South To Dixie
TTITLE3=Ain't Gonna Work Tomorrow
TTITLE4=John Deere Tractor
TTITLE5=You Won't Be Satisfied This Way
TTITLE6=Old Dangerfield
TTITLE7=Dowing In A Sea Of Broken Hearts
TTITLE8=Put It Off Until Tomorrow
TTITLE9=Girl At The Crossroads Bar
TTITLE10=Honky Tonk Blues
TTITLE11=Cold Virginia Blues
TTITLE12=House Of The Rising Sun
TTITLE13=Traveling The Highway Home
EXTD=
EXTT0=
EXTT1=
EXTT2=
EXTT3=
EXTT4=
EXTT5=
EXTT6=
EXTT7=
EXTT8=
EXTT9=
EXTT10=
EXTT11=
EXTT12=
EXTT13=
PLAYORDER=
